<svg width="375" height="376" viewBox="0 0 375 376" fill="none" xmlns="http://www.w3.org/2000/svg">
<path d="M187.5 0.625C229.114 0.625 269.545 14.4685 302.425 39.9749C335.305 65.4813 358.766 101.201 369.113 141.508C379.459 181.815 376.102 224.419 359.571 262.608C343.041 300.797 314.275 332.402 277.806 352.445L234.94 274.447C254.098 263.918 269.21 247.315 277.894 227.253C286.578 207.191 288.341 184.81 282.906 163.636C277.471 142.462 265.146 123.697 247.873 110.298C230.6 96.8987 209.361 89.6263 187.5 89.6263L187.5 0.625Z" fill="#BEF3C0"/>
<path d="M277.822 352.436C245.324 370.3 208.259 378.126 171.313 374.925C134.368 371.724 99.2013 357.638 70.2608 334.451C41.3203 311.263 19.9057 280.014 8.72493 244.656C-2.45579 209.297 -2.90046 171.418 7.44716 135.806L92.9135 160.641C87.4776 179.348 87.7112 199.247 93.5848 217.822C99.4583 236.397 110.708 252.813 125.911 264.994C141.114 277.175 159.588 284.574 178.997 286.256C198.405 287.938 217.877 283.826 234.948 274.442L277.822 352.436Z" fill="#AC94F1"/>
<path d="M7.33821 136.183C17.2778 101.707 36.9003 70.8077 63.8768 47.1514L122.557 114.068C108.386 126.495 98.0778 142.728 92.8563 160.838L7.33821 136.183Z" fill="#FFF0CA"/>
<path d="M62.9118 48.0035C88.673 25.0981 120.25 9.73774 154.173 3.6106L169.992 91.1947C152.172 94.4135 135.584 102.483 122.051 114.516L62.9118 48.0035Z" fill="#F9CF64"/>
<path d="M153.259 3.77808C165.951 1.42057 178.853 0.380155 191.759 0.673373L189.737 89.6517C182.957 89.4977 176.18 90.0443 169.512 91.2827L153.259 3.77808Z" fill="#F38FBF"/>
</svg>
