<svg width="48" height="49" viewBox="0 0 48 49" fill="none" xmlns="http://www.w3.org/2000/svg">
<path d="M38 24.5C38.0023 26.344 37.6392 28.1702 36.9317 29.8731C36.2241 31.576 35.1861 33.1217 33.8777 34.4211C32.5799 35.7166 31.0396 36.7436 29.3447 37.4435C27.6498 38.1433 25.8337 38.5024 24 38.5C16.2678 38.5 9.99997 32.2322 9.99997 24.5C9.99508 20.9102 11.374 17.4567 13.85 14.8575C15.1564 13.4789 16.7304 12.3814 18.4757 11.6322C20.2209 10.8829 22.1007 10.4977 24 10.5C25.8337 10.4976 27.6498 10.8566 29.3447 11.5565C31.0396 12.2564 32.5799 13.2834 33.8777 14.5789M38 24.5C38.0023 22.656 37.6392 20.8298 36.9317 19.1269C36.2241 17.424 35.1861 15.8783 33.8777 14.5789M38 24.5C35.9574 24.5 30.3224 23.7299 25.2789 25.944C19.8 28.3499 15.8331 32.0816 14.1041 34.4028M38 24.5C38 26.2241 37.6884 27.8746 37.1179 29.3999M33.8777 14.5789C32.6449 13.3506 31.1942 12.3623 29.5999 11.6647M18.75 11.518C20.941 13.5403 25.722 18.6895 27.5 23.8002C29.278 28.9116 29.936 35.1962 30.342 36.9847M10.1079 22.7501C12.7525 22.9097 19.7532 23.0532 24.2331 21.1401C28.7131 19.227 32.568 15.7081 33.8903 14.5916M11.0499 29.8291C12.2835 32.8152 14.5084 35.285 17.3499 36.8228" stroke="#E3E4E6" stroke-opacity="0.55" stroke-width="2.8" stroke-linecap="round" stroke-linejoin="round"/>
</svg>
