<svg width="122" height="29" viewBox="0 0 122 29" fill="none" xmlns="http://www.w3.org/2000/svg">
<g clip-path="url(#clip0_1_296)">
<path d="M1.90595 5.63954V11.2401C1.90595 12.1589 1.90595 13.1908 0 13.1908V14.704V14.7244V16.1996C1.90595 16.1996 1.90595 17.231 1.90595 18.1503V23.7503C1.90595 28.0967 4.28734 28.4123 8.33667 28.4123V25.0319C6.43072 25.0319 5.71666 24.7513 5.71666 23.6669V18.1217C5.71666 16.8413 5.80457 15.5037 4.68683 14.6946C5.80457 13.8867 5.71666 12.5491 5.71666 11.2675V5.72354C5.71666 4.64029 6.43131 4.35854 8.33667 4.35854V0.97754C4.28734 0.976957 1.90595 1.29254 1.90595 5.63954ZM12.6216 5.45812C11.5804 6.33779 11.0601 7.60129 11.0601 9.24746V10.7262H8.88507V13.8161H11.0601V25.0138H15.7864V13.8161H18.7144V10.7262H15.7864V9.67154C15.7864 9.13487 15.9443 8.72129 16.2601 8.43079C16.5759 8.14029 17.0274 7.99562 17.6129 7.99562C17.9005 7.99562 19.3699 8.00029 19.3699 8.00029V4.41454C19.3699 4.41454 16.7463 4.38596 16.3713 4.38596C15.2303 4.38596 13.6628 4.57729 12.6216 5.45812ZM21.4487 7.98746H26.1756V4.41454H21.4487V7.98746ZM21.4487 25.0144H26.1756V10.7262H21.4487V25.0144ZM37.8314 10.462C36.9391 10.462 36.1299 10.6626 35.4051 11.0628C34.6803 11.463 34.0715 12.0206 33.5787 12.7329L33.3975 10.7262H28.9774V25.0138H33.6762V14.7413C33.9178 14.477 34.2084 14.2688 34.5475 14.1206C34.8866 13.9725 35.2747 13.896 35.7119 13.896C36.4092 13.896 36.9367 14.0658 37.2943 14.4041C37.652 14.7436 37.8314 15.3211 37.8314 16.1407V25.015H42.5439V16.1541C42.5439 14.1731 42.1277 12.7294 41.2964 11.8223C40.4645 10.9152 39.3091 10.462 37.8314 10.462ZM56.7964 17.9695C55.9089 17.2875 54.5442 16.7736 52.704 16.4306C51.533 16.2206 50.7538 15.9815 50.3687 15.7172C49.9829 15.4541 49.7898 15.1315 49.7898 14.7535C49.7898 14.3569 49.9572 14.0331 50.2915 13.777C50.6258 13.5215 51.0397 13.3932 51.5324 13.3932C52.2016 13.3932 52.6873 13.539 52.9893 13.8295C53.2913 14.12 53.4426 14.547 53.4426 15.11H58.0158L58.0439 15.0312C58.1001 13.6825 57.5332 12.5865 56.3431 11.7365C55.153 10.8866 53.5538 10.4614 51.5462 10.4614C49.6402 10.4614 48.1302 10.9 47.0143 11.7762C45.8989 12.6524 45.3415 13.7187 45.3415 14.977C45.3415 16.1652 45.7877 17.1038 46.68 17.7898C47.5722 18.477 48.8969 18.9827 50.6539 19.3088C51.7693 19.5287 52.5383 19.7772 52.9612 20.0543C53.3846 20.332 53.5957 20.6475 53.5957 20.9975C53.5957 21.4292 53.433 21.7629 53.1077 21.9945C52.7823 22.2278 52.3039 22.3462 51.6718 22.3462C50.9099 22.3462 50.3214 22.1951 49.9082 21.8965C49.4943 21.5978 49.2784 21.109 49.2599 20.4311H44.9935L44.966 20.5099C44.9104 21.7255 45.4791 22.8263 46.674 23.8115C47.8683 24.798 49.4925 25.2903 51.5468 25.2903C53.5269 25.2903 55.1183 24.8744 56.3221 24.042C57.5266 23.2101 58.1282 22.1525 58.1282 20.8663C58.1282 19.6174 57.6839 18.6514 56.7964 17.9695ZM73.6198 19.006H73.5361L71.0548 10.7274H68.0844L65.6306 19.0731H65.5469L63.8879 10.7274H59.5378L63.0931 25.015H67.0677L69.5346 17.4357H69.6183L72.0727 25.015H76.0604L79.602 10.7274H75.2519L73.6198 19.006ZM87.6032 10.4619C85.3629 10.4532 83.64 11.138 82.4367 12.5159C81.2317 13.8931 80.63 15.6694 80.63 17.8435V18.3457C80.63 20.3349 81.2927 21.9904 82.6161 23.311C83.9408 24.6323 85.7146 25.292 87.9363 25.292C89.1354 25.292 90.2579 25.1404 91.3038 24.8365C92.3492 24.5331 93.2026 24.1528 93.8617 23.6949L92.7469 20.9742C91.9288 21.3009 91.2524 21.529 90.7178 21.6614C90.1825 21.7944 89.4691 21.8603 88.5768 21.8603C87.6935 21.8603 86.9878 21.6246 86.4579 21.1539C85.9275 20.6814 85.6123 20.0811 85.5094 19.3508L85.5381 19.2709H94.1541V16.9323C94.1541 14.9431 93.5728 13.3675 92.4114 12.205C91.2512 11.043 89.6473 10.4619 87.6032 10.4619ZM89.5552 16.4843H85.4975L85.4556 16.419C85.5304 15.6525 85.7373 15.0405 86.077 14.5826C86.4155 14.1259 86.925 13.8966 87.6038 13.8966C88.273 13.8966 88.7646 14.0903 89.0821 14.4776C89.3979 14.865 89.5564 15.4197 89.5564 16.1413L89.5552 16.4843ZM103.418 10.4619C101.177 10.4532 99.4557 11.138 98.2513 12.5159C97.048 13.8931 96.4452 15.6694 96.4452 17.8435V18.3457C96.4452 20.3349 97.1078 21.9904 98.4325 23.311C99.7577 24.6323 101.53 25.292 103.751 25.292C104.951 25.292 106.074 25.1404 107.12 24.8365C108.166 24.5331 109.018 24.1528 109.678 23.6949L108.563 20.9742C107.745 21.3009 107.069 21.529 106.534 21.6614C105.998 21.7944 105.285 21.8603 104.393 21.8603C103.51 21.8603 102.804 21.6246 102.274 21.1539C101.743 20.6814 101.428 20.0811 101.325 19.3508L101.353 19.2709H109.97V16.9323C109.97 14.9431 109.389 13.3675 108.227 12.205C107.065 11.043 105.463 10.4619 103.418 10.4619ZM105.369 16.4843H101.313L101.271 16.419C101.346 15.6525 101.552 15.0405 101.891 14.5826C102.229 14.1259 102.739 13.8966 103.418 13.8966C104.087 13.8966 104.58 14.0903 104.897 14.4776C105.214 14.865 105.371 15.4197 105.371 16.1413V16.4849H105.369V16.4843ZM119.652 21.3085C119.067 21.3085 118.615 21.1638 118.299 20.8733C117.984 20.5828 117.825 20.168 117.825 19.6314V13.8412H120.277V10.7501H117.825V4.39179H113.099V10.7501H110.923V13.8412H113.099V20.0555C113.099 21.7016 113.619 22.9651 114.66 23.846C115.7 24.7274 117.267 24.9181 118.41 24.9181C118.786 24.9181 121.409 24.8895 121.409 24.8895V21.3038C121.409 21.3038 119.941 21.3085 119.652 21.3085Z" fill="#1D2130"/>
</g>
<defs>
<clipPath id="clip0_1_296">
<rect width="122" height="28" fill="white" transform="translate(0 0.5)"/>
</clipPath>
</defs>
</svg>
