<svg width="101" height="20" viewBox="0 0 101 20" fill="none" xmlns="http://www.w3.org/2000/svg">
<g opacity="0.8">
<g clip-path="url(#clip0_1_231)">
<path d="M20.4512 10C20.4512 4.47715 15.974 0 10.4512 0C4.92832 0 0.451172 4.47715 0.451172 10C0.451172 14.9912 4.10801 19.1283 8.88867 19.8785V12.8906H6.34961V10H8.88867V7.79688C8.88867 5.29063 10.3816 3.90625 12.6658 3.90625C13.7596 3.90625 14.9043 4.10156 14.9043 4.10156V6.5625H13.6434C12.4012 6.5625 12.0137 7.3334 12.0137 8.125V10H14.7871L14.3437 12.8906H12.0137V19.8785C16.7943 19.1283 20.4512 14.9912 20.4512 10Z" fill="#1D2130"/>
</g>
<g clip-path="url(#clip1_1_231)">
<path d="M46.743 18.1246C54.2883 18.1246 58.4164 11.8719 58.4164 6.45118C58.4164 6.2754 58.4125 6.09572 58.4047 5.91993C59.2077 5.33918 59.9007 4.61985 60.4512 3.79572C59.7033 4.12847 58.9092 4.34579 58.0961 4.44025C58.9522 3.92706 59.5933 3.12086 59.9004 2.17111C59.095 2.64843 58.2142 2.98514 57.2957 3.16681C56.6769 2.50927 55.8587 2.0739 54.9676 1.92801C54.0765 1.78212 53.1622 1.93384 52.366 2.35971C51.5697 2.78559 50.936 3.46189 50.5627 4.28406C50.1894 5.10623 50.0974 6.02848 50.3008 6.90822C48.6699 6.82638 47.0745 6.40272 45.6178 5.66472C44.1612 4.92671 42.8759 3.89083 41.8453 2.62423C41.3215 3.52734 41.1612 4.596 41.397 5.61304C41.6328 6.63008 42.2471 7.51917 43.1148 8.09962C42.4634 8.07894 41.8262 7.90353 41.2559 7.5879V7.63868C41.2553 8.58643 41.5829 9.50512 42.1831 10.2386C42.7833 10.9721 43.6189 11.4751 44.548 11.6621C43.9446 11.8272 43.3112 11.8513 42.6969 11.7324C42.9591 12.5475 43.4691 13.2604 44.156 13.7716C44.8428 14.2828 45.6721 14.5668 46.5281 14.584C45.0749 15.7256 43.2797 16.3447 41.4316 16.3418C41.1039 16.3413 40.7765 16.3212 40.4512 16.2817C42.3286 17.4861 44.5124 18.1258 46.743 18.1246Z" fill="#1D2130"/>
</g>
<g clip-path="url(#clip2_1_231)">
<path d="M98.9707 0H81.9277C81.1113 0 80.4512 0.644531 80.4512 1.44141V18.5547C80.4512 19.3516 81.1113 20 81.9277 20H98.9707C99.7871 20 100.451 19.3516 100.451 18.5586V1.44141C100.451 0.644531 99.7871 0 98.9707 0ZM86.3848 17.043H83.416V7.49609H86.3848V17.043ZM84.9004 6.19531C83.9473 6.19531 83.1777 5.42578 83.1777 4.47656C83.1777 3.52734 83.9473 2.75781 84.9004 2.75781C85.8496 2.75781 86.6191 3.52734 86.6191 4.47656C86.6191 5.42188 85.8496 6.19531 84.9004 6.19531ZM97.4941 17.043H94.5293V12.4023C94.5293 11.2969 94.5098 9.87109 92.9863 9.87109C91.4434 9.87109 91.209 11.0781 91.209 12.3242V17.043H88.248V7.49609H91.0918V8.80078H91.1309C91.5254 8.05078 92.4941 7.25781 93.9355 7.25781C96.9395 7.25781 97.4941 9.23438 97.4941 11.8047V17.043Z" fill="#1D2130"/>
</g>
</g>
<defs>
<clipPath id="clip0_1_231">
<rect width="20" height="20" fill="white" transform="translate(0.451172)"/>
</clipPath>
<clipPath id="clip1_1_231">
<rect width="20" height="20" fill="white" transform="translate(40.4512)"/>
</clipPath>
<clipPath id="clip2_1_231">
<rect width="20" height="20" fill="white" transform="translate(80.4512)"/>
</clipPath>
</defs>
</svg>
